HIERARCHY
ROOT Hips
{
    OFFSET 0.000 93.594 0.000
    CHANNELS 6 Xposition Yposition Zposition Yrotation Xrotation Zrotation
    JOINT RightHip
    {
        OFFSET -9.500 -1.594 0.000
        CHANNELS 3 Yrotation Xrotation Zrotation
        JOINT RightKnee
        {
            OFFSET 0.000 -42.000 0.000
            CHANNELS 3 Yrotation Xrotation Zrotation
            JOINT RightAnkle
            {
                OFFSET 0.000 -42.000 0.000
                CHANNELS 3 Yrotation Xrotation Zrotation
                End Site
                {
                    OFFSET 0.000 -8.000 17.500
                }
            }
        }
    }
    JOINT LeftHip
    {
        OFFSET 9.500 -1.594 0.000
        CHANNELS 3 Yrotation Xrotation Zrotation
        JOINT LeftKnee
        {
            OFFSET 0.000 -42.000 0.000
            CHANNELS 3 Yrotation Xrotation Zrotation
            JOINT LeftAnkle
            {
                OFFSET 0.000 -42.000 0.000
                CHANNELS 3 Yrotation Xrotation Zrotation
                End Site
                {
                    OFFSET 0.000 -8.000 17.500
                }
            }
        }
    }
    JOINT Chest
    {
        OFFSET 0.000 14.348 0.000
        CHANNELS 3 Yrotation Xrotation Zrotation
        JOINT Chest2
        {
            OFFSET 0.000 9.746 0.000
            CHANNELS 3 Yrotation Xrotation Zrotation
            JOINT Chest3
            {
                OFFSET 0.000 10.149 0.000
                CHANNELS 3 Yrotation Xrotation Zrotation
                JOINT Chest4
                {
                    OFFSET 0.000 9.746 0.000
                    CHANNELS 3 Yrotation Xrotation Zrotation
                    JOINT Neck
                    {
                        OFFSET 0.000 10.417 0.000
                        CHANNELS 3 Yrotation Xrotation Zrotation
                        JOINT Head
                        {
                            OFFSET 0.000 9.000 0.000
                            CHANNELS 3 Yrotation Xrotation Zrotation
                            End Site
                            {
                                OFFSET 0.000 16.000 0.000
                            }
                        }
                    }
                    JOINT RightCollar
                    {
                        OFFSET -3.200 6.945 0.000
                        CHANNELS 3 Yrotation Xrotation Zrotation
                        JOINT RightShoulder
                        {
                            OFFSET -12.800 0.000 0.000
                            CHANNELS 3 Yrotation Xrotation Zrotation
                            JOINT RightElbow
                            {
OFFSET -0 -27 0.000
						CHANNELS 3 Xrotation Yrotation Zrotation
                                JOINT RightWrist
                                {
OFFSET -0 -26 0.000
						CHANNELS 3 Xrotation Yrotation Zrotation
                                    JOINT RightFinger0
                                    {
OFFSET -0.196 -2.56 3.210
						CHANNELS 3 Xrotation Yrotation Zrotation
                                        JOINT RightFinger01
                                        {
OFFSET -0 -3.788 0.000
						CHANNELS 3 Xrotation Yrotation Zrotation
                                            JOINT RightFinger0Nub
                                            {
OFFSET -0 -2.631 0.000
						CHANNELS 3 Xrotation Yrotation Zrotation
                                                End Site
                                                {
OFFSET 0 -2.256 0
                                                }
                                            }
                                        }
                                    }
                                    JOINT RightFinger1
                                    {
OFFSET -0.523 -3.316 2.035
						CHANNELS 3 Xrotation Yrotation Zrotation
                                        JOINT RightFinger11
                                        {
OFFSET 0.094 -5.366 1.028
						CHANNELS 3 Xrotation Yrotation Zrotation
                                            JOINT RightFinger12
                                            {
OFFSET -0 -3.723 0.000
						CHANNELS 3 Xrotation Yrotation Zrotation
                                                JOINT RightFinger1Nub
                                                {
OFFSET -0 -2.111 0.000
						CHANNELS 3 Xrotation Yrotation Zrotation
                                                    End Site
                                                    {
OFFSET 0 -1.857 0
                                                    }
                                                }
                                            }
                                        }
                                    }
                                    JOINT RightFinger2
                                    {
OFFSET -0.532 -3.479 0.778
						CHANNELS 3 Xrotation Yrotation Zrotation
                                        JOINT RightFinger21
                                        {
OFFSET 0.086 -5.322 0.323
						CHANNELS 3 Xrotation Yrotation Zrotation
                                            JOINT RightFinger22
                                            {
OFFSET -0 -4.062 0.000
						CHANNELS 3 Xrotation Yrotation Zrotation
                                                JOINT RightFinger2Nub
                                                {
OFFSET -0 -2.547 0.000
						CHANNELS 3 Xrotation Yrotation Zrotation
                                                    End Site
                                                    {
OFFSET 0 -2.031 0
                                                    }
                                                }
                                            }
                                        }
                                    }
                                    JOINT RightFinger3
                                    {
OFFSET -0.553 -3.461 -0.133
						CHANNELS 3 Xrotation Yrotation Zrotation
                                        JOINT RightFinger31
                                        {
OFFSET 0.023 -4.767 -0.493
						CHANNELS 3 Xrotation Yrotation Zrotation
                                            JOINT RightFinger32
                                            {
OFFSET -0 -3.541 0.000
						CHANNELS 3 Xrotation Yrotation Zrotation
                                                JOINT RightFinger3Nub
                                                {
OFFSET -0 -2.456 0.000
						CHANNELS 3 Xrotation Yrotation Zrotation
                                                    End Site
                                                    {
OFFSET 0 -1.91 0
                                                    }
                                                }
                                            }
                                        }
                                    }
                                    JOINT RightFinger4
                                    {
OFFSET -0.483 -3.251 -1.236
						CHANNELS 3 Xrotation Yrotation Zrotation
                                        JOINT RightFinger41
                                        {
OFFSET 0.023 -4.259 -1.122
						CHANNELS 3 Xrotation Yrotation Zrotation
                                            JOINT RightFinger42
                                            {
OFFSET -0 -2.835 0.000
						CHANNELS 3 Xrotation Yrotation Zrotation
                                                JOINT RightFinger4Nub
                                                {
OFFSET -0 -1.792 0.000
						CHANNELS 3 Xrotation Yrotation Zrotation
                                                    End Site
                                                    {
OFFSET 0 -1.692 0
                                                    }
                                                }
                                            }
                                        }
                                    }
                                }
                            }
                        }
                    }
                    JOINT LeftCollar
                    {
                        OFFSET 3.200 6.945 0.000
                        CHANNELS 3 Yrotation Xrotation Zrotation
                        JOINT LeftShoulder
                        {
                            OFFSET 12.800 0.000 0.000
                            CHANNELS 3 Yrotation Xrotation Zrotation
                            JOINT LeftElbow
                            {
OFFSET -0 -27 0.000
						CHANNELS 3 Xrotation Yrotation Zrotation
                                JOINT LeftWrist
                                {
OFFSET -0 -26 0.000
						CHANNELS 3 Xrotation Yrotation Zrotation
                                    JOINT LeftFinger0
                                    {
OFFSET -0.196 -2.56 3.210
						CHANNELS 3 Xrotation Yrotation Zrotation
                                        JOINT LeftFinger01
                                        {
OFFSET -0 -3.788 0.000
						CHANNELS 3 Xrotation Yrotation Zrotation
                                            JOINT LeftFinger0Nub
                                            {
OFFSET -0 -2.631 0.000
						CHANNELS 3 Xrotation Yrotation Zrotation
                                                End Site
                                                {
OFFSET 0 -2.256 0
                                                }
                                            }
                                        }
                                    }
                                    JOINT LeftFinger1
                                    {
OFFSET -0.523 -3.316 2.035
						CHANNELS 3 Xrotation Yrotation Zrotation
                                        JOINT LeftFinger11
                                        {
OFFSET 0.094 -5.366 1.028
						CHANNELS 3 Xrotation Yrotation Zrotation
                                            JOINT LeftFinger12
                                            {
OFFSET -0 -3.723 0.000
						CHANNELS 3 Xrotation Yrotation Zrotation
                                                JOINT LeftFinger1Nub
                                                {
OFFSET -0 -2.111 0.000
						CHANNELS 3 Xrotation Yrotation Zrotation
                                                    End Site
                                                    {
OFFSET 0 -1.857 0
                                                    }
                                                }
                                            }
                                        }
                                    }
                                    JOINT LeftFinger2
                                    {
OFFSET -0.532 -3.479 0.778
						CHANNELS 3 Xrotation Yrotation Zrotation
                                        JOINT LeftFinger21
                                        {
OFFSET 0.086 -5.322 0.323
						CHANNELS 3 Xrotation Yrotation Zrotation
                                            JOINT LeftFinger22
                                            {
OFFSET -0 -4.062 0.000
						CHANNELS 3 Xrotation Yrotation Zrotation
                                                JOINT LeftFinger2Nub
                                                {
OFFSET -0 -2.547 0.000
						CHANNELS 3 Xrotation Yrotation Zrotation
                                                    End Site
                                                    {
OFFSET 0 -2.031 0
                                                    }
                                                }
                                            }
                                        }
                                    }
                                    JOINT LeftFinger3
                                    {
OFFSET -0.553 -3.461 -0.133
						CHANNELS 3 Xrotation Yrotation Zrotation
                                        JOINT LeftFinger31
                                        {
OFFSET 0.023 -4.767 -0.493
						CHANNELS 3 Xrotation Yrotation Zrotation
                                            JOINT LeftFinger32
                                            {
OFFSET -0 -3.541 0.000
						CHANNELS 3 Xrotation Yrotation Zrotation
                                                JOINT LeftFinger3Nub
                                                {
OFFSET -0 -2.456 0.000
						CHANNELS 3 Xrotation Yrotation Zrotation
                                                    End Site
                                                    {
OFFSET 0 -1.91 0
                                                    }
                                                }
                                            }
                                        }
                                    }
                                    JOINT LeftFinger4
                                    {
OFFSET -0.483 -3.251 -1.236
						CHANNELS 3 Xrotation Yrotation Zrotation
                                        JOINT LeftFinger41
                                        {
OFFSET 0.023 -4.259 -1.122
						CHANNELS 3 Xrotation Yrotation Zrotation
                                            JOINT LeftFinger42
                                            {
OFFSET -0 -2.835 0.000
						CHANNELS 3 Xrotation Yrotation Zrotation
                                                JOINT LeftFinger4Nub
                                                {
OFFSET -0 -1.792 0.000
						CHANNELS 3 Xrotation Yrotation Zrotation
                                                    End Site
                                                    {
OFFSET 0 -1.692 0
                                                    }
                                                }
                                            }
                                        }
                                    }
                                }
                            }
                        }
                    }
                }
            }
        }
    }
}
MOTION

Frames: 9
Frame Time: 0.017
-215.68 91.20 91.60 70.79 -6.62 -0.94 -1.15 -2.68 -7.20 -0.00 29.68 -0.00 -41.07 -11.18 16.26 -10.70 -8.54 16.24 0.00 25.70 0.00 3.08 -1.92 -16.98 -17.96 4.27 2.63 -4.51 1.05 0.79 -7.24 1.81 1.23 2.01 1.84 -1.45 0.56 34.96 -21.49 7.63 42.06 -24.37 20.90 -3.27 -0.49 -8.02 -22.81 -40.71 -32.75 -32.03 106.26 -7.43 16.39 -4.56 -48.54 -0 24.27 13.46 -0 -5.55 0.23 -0 0.00 0 -0 0.00 -15 -0 -0.20 0 -0 8.78 0 -0 4.39 0 -0 0.00 0 -0 10.82 0 -0 10.82 0 -0 10.82 0 -0 0.00 15 -0 26.05 0 -0 26.05 0 -0 26.05 0 -0 0.00 25 -0 31.65 0 -0 31.65 0 -0 31.65 -9.97 3.26 5.55 40.34 -5.13 22.29 29.43 62.67 -120.32 -24.07 51.55 25.44 -26.91 0 -35.18 -43.77 0 9.03 26.29 0 0.00 0.00 0 0.00 -15.00 0 -4.29 0.00 0 -4.95 0.00 0 -2.47 0.00 0 0.00 0.00 0 -21.86 0.00 0 -21.86 0.00 0 -21.86 0.00 0 0.00 15.00 0 -31.28 0.00 0 -31.28 0.00 0 -31.28 0.00 0 0.00 25.00 0 -34.14 0.00 0 -34.14 0.00 0 -34.14 
-216.12 91.34 92.07 69.62 -6.72 -0.39 -0.46 -3.12 -7.30 -0.00 30.01 0.00 -40.64 -11.44 15.78 -10.06 -8.40 16.11 0.00 25.75 0.00 3.67 -0.49 -17.89 -17.15 4.51 2.46 -4.30 1.10 0.74 -6.92 1.88 1.16 1.99 1.85 -1.46 0.36 34.78 -21.48 7.36 41.84 -24.55 20.86 -3.80 -0.07 -5.83 -24.55 -40.14 -32.22 -31.05 105.49 -7.75 16.41 -4.94 -48.38 -0 24.42 13.78 -0 -5.40 0.08 -0 0.00 0 -0 0.00 -15 -0 -0.31 0 -0 8.64 0 -0 4.32 0 -0 0.00 0 -0 10.54 0 -0 10.54 0 -0 10.54 0 -0 0.00 15 -0 25.93 0 -0 25.93 0 -0 25.93 0 -0 0.00 25 -0 31.37 0 -0 31.37 0 -0 31.37 -9.96 2.32 5.72 40.44 -5.82 22.76 33.62 61.46 -122.17 -26.90 51.86 27.89 -26.96 0 -34.55 -43.87 0 9.66 27.00 0 0.00 0.00 0 0.00 -15.00 0 -3.87 0.00 0 -4.27 0.00 0 -2.13 0.00 0 0.00 0.00 0 -21.47 0.00 0 -21.47 0.00 0 -21.47 0.00 0 0.00 15.00 0 -31.68 0.00 0 -31.68 0.00 0 -31.68 0.00 0 0.00 25.00 0 -35.98 0.00 0 -35.98 0.00 0 -35.98 
-216.55 91.48 92.41 68.55 -6.48 0.20 0.14 -3.93 -7.53 0.00 30.41 0.00 -40.14 -11.65 15.21 -9.56 -8.56 15.93 0.00 25.75 0.00 4.45 0.90 -18.58 -16.34 4.63 2.40 -4.10 1.13 0.73 -6.61 1.92 1.14 1.97 1.86 -1.47 0.08 34.58 -21.48 6.94 41.55 -24.84 21.13 -4.61 0.09 -3.99 -25.76 -39.97 -31.88 -30.34 104.55 -7.85 16.42 -5.34 -48.18 -0 24.49 14.18 -0 -5.33 -0.51 -0 0.00 0 -0 0.00 -15 -0 -0.52 0 -0 8.46 0 -0 4.23 0 -0 0.00 0 -0 10.19 0 -0 10.19 0 -0 10.19 0 -0 0.00 15 -0 25.57 0 -0 25.57 0 -0 25.57 0 -0 0.00 25 -0 30.94 0 -0 30.94 0 -0 30.94 -9.88 1.35 5.79 40.91 -9.97 24.49 37.47 58.62 -121.41 -27.62 51.21 27.93 -26.92 0 -34.26 -43.80 0 9.96 27.20 0 0.00 0.00 0 0.00 -15.00 0 -3.84 0.00 0 -4.84 0.00 0 -2.42 0.00 0 0.00 0.00 0 -21.06 0.00 0 -21.06 0.00 0 -21.06 0.00 0 0.00 15.00 0 -31.23 0.00 0 -31.23 0.00 0 -31.23 0.00 0 0.00 25.00 0 -36.36 0.00 0 -36.36 0.00 0 -36.36 
-217.04 91.62 92.72 67.76 -6.26 0.73 0.66 -4.66 -7.70 0.00 30.68 0.00 -39.83 -11.75 14.70 -9.41 -8.76 15.80 0.00 25.76 0.00 5.26 2.10 -18.72 -15.74 4.77 2.33 -3.94 1.16 0.71 -6.37 1.97 1.11 1.95 1.88 -1.48 -0.16 34.36 -21.47 6.56 41.25 -25.09 21.76 -5.38 0.20 -2.72 -26.63 -40.43 -31.47 -30.06 103.94 -7.68 16.6 -5.72 -48.07 -0 24.47 14.41 -0 -5.35 -1.19 -0 0.00 0 -0 0.00 -15 -0 -0.55 0 -0 8.37 0 -0 4.18 0 -0 0.00 0 -0 9.70 0 -0 9.70 0 -0 9.70 0 -0 0.00 15 -0 25.02 0 -0 25.02 0 -0 25.02 0 -0 0.00 25 -0 30.46 0 -0 30.46 0 -0 30.46 -9.65 0.56 5.89 41.32 -10.30 24.93 35.34 58.02 -119.10 -27.65 50.62 27.57 -26.80 0 -34.25 -43.54 0 9.97 27.53 0 0.00 0.00 0 0.00 -15.00 0 -4.03 0.00 0 -4.75 0.00 0 -2.37 0.00 0 0.00 0.00 0 -20.75 0.00 0 -20.75 0.00 0 -20.75 0.00 0 0.00 15.00 0 -30.84 0.00 0 -30.84 0.00 0 -30.84 0.00 0 0.00 25.00 0 -36.35 0.00 0 -36.35 0.00 0 -36.35 
-217.58 91.75 93.02 67.26 -6.22 1.17 1.20 -5.12 -7.77 0.00 30.90 0.00 -39.85 -11.73 14.43 -10.20 -8.60 15.55 -0.00 25.73 -0.00 6.71 3.26 -18.47 -15.54 4.93 2.17 -3.89 1.19 0.67 -6.30 2.02 1.05 1.95 1.87 -1.49 -0.09 34.20 -21.54 6.42 41.04 -25.20 22.67 -5.99 0.39 -2.04 -26.95 -40.98 -31.34 -29.9 103.43 -7.5 16.84 -6.00 -48.04 -0 24.44 14.46 -0 -5.38 -1.24 -0 0.00 0 -0 0.00 -15 -0 -0.43 0 -0 8.47 0 -0 4.23 0 -0 0.00 0 -0 9.25 0 -0 9.25 0 -0 9.25 0 -0 0.00 15 -0 24.68 0 -0 24.68 0 -0 24.68 0 -0 0.00 25 -0 30.29 0 -0 30.29 0 -0 30.29 -9.19 0.12 6.10 41.72 -10.02 25.15 32.14 57.51 -117.19 -27.13 50.7 26.73 -27.18 0 -33.64 -44.31 0 10.58 27.75 0 0.00 0.00 0 0.00 -15.00 0 -3.96 0.00 0 -4.77 0.00 0 -2.39 0.00 0 0.00 0.00 0 -20.80 0.00 0 -20.80 0.00 0 -20.80 0.00 0 0.00 15.00 0 -30.23 0.00 0 -30.23 0.00 0 -30.23 0.00 0 0.00 25.00 0 -36.10 0.00 0 -36.10 0.00 0 -36.10 
-218.03 91.86 93.32 67.15 -6.35 1.49 1.48 -5.22 -7.74 0.00 30.96 0.00 -40.07 -11.70 14.19 -10.98 -8.36 15.39 -0.00 25.65 0.00 7.72 4.42 -17.92 -15.64 5.04 2.05 -3.92 1.22 0.65 -6.34 2.05 1.01 1.95 1.86 -1.50 0.06 34.18 -21.65 6.30 40.95 -25.29 23.23 -6.25 0.41 -1.72 -26.91 -41.6 -31.42 -30.04 103.36 -7.44 16.87 -6.21 -48.01 -0 24.43 14.51 -0 -5.39 -1.01 -0 0.00 0 -0 0.00 -15 -0 -0.43 0 -0 8.54 0 -0 4.27 0 -0 0.00 0 -0 8.97 0 -0 8.97 0 -0 8.97 0 -0 0.00 15 -0 24.62 0 -0 24.62 0 -0 24.62 0 -0 0.00 25 -0 30.44 0 -0 30.44 0 -0 30.44 -8.78 -0.01 6.40 41.59 -9.07 25.04 29.39 57.32 -116.54 -25.21 51.11 24.51 -27.95 0 -33.50 -45.85 0 10.72 28.69 0 0.00 0.00 0 0.00 -15.00 0 -4.30 0.00 0 -5.14 0.00 0 -2.57 0.00 0 0.00 0.00 0 -21.41 0.00 0 -21.41 0.00 0 -21.41 0.00 0 0.00 15.00 0 -28.92 0.00 0 -28.92 0.00 0 -28.92 0.00 0 0.00 25.00 0 -34.67 0.00 0 -34.67 0.00 0 -34.67 
-218.34 91.96 93.59 67.43 -6.54 1.67 1.36 -5.05 -7.66 0.00 30.86 0.00 -40.29 -11.67 14.02 -11.95 -8.18 15.33 -0.00 25.64 -0.00 8.56 5.63 -17.14 -15.72 5.02 2.06 -3.94 1.21 0.65 -6.37 2.04 1.01 1.95 1.87 -1.50 -0.08 34.33 -21.69 5.99 40.97 -25.45 23.05 -6.20 0.37 -1.54 -26.48 -42.6 -31.38 -30.67 103.77 -7.5 16.81 -5.93 -48.07 -0 24.47 14.4 -0 -5.35 -0.2 -0 0.00 0 -0 0.00 -15 -0 -0.52 0 -0 8.56 0 -0 4.28 0 -0 0.00 0 -0 8.89 0 -0 8.89 0 -0 8.89 0 -0 0.00 15 -0 24.68 0 -0 24.68 0 -0 24.68 0 -0 0.00 25 -0 30.41 0 -0 30.41 0 -0 30.41 -8.75 0.23 6.67 41.48 -8.89 24.49 26.67 56.66 -115.40 -22.57 51.46 21.59 -28.45 0 -34.40 -46.85 0 9.81 29.86 0 0.00 0.00 0 0.00 -15.00 0 -4.78 0.00 0 -5.73 0.00 0 -2.86 0.00 0 0.00 0.00 0 -22.46 0.00 0 -22.46 0.00 0 -22.46 0.00 0 0.00 15.00 0 -28.44 0.00 0 -28.44 0.00 0 -28.44 0.00 0 0.00 25.00 0 -36.14 0.00 0 -36.14 0.00 0 -36.14 
-218.54 92.04 93.83 68.01 -6.82 1.72 0.86 -4.66 -7.55 0.00 30.64 0.00 -40.45 -11.63 13.89 -13.10 -7.98 15.29 0.00 25.69 0.00 9.35 6.81 -16.18 -15.79 4.97 2.22 -3.95 1.20 0.69 -6.39 2.03 1.07 1.93 1.90 -1.49 -0.44 34.63 -21.71 5.44 41.04 -25.73 22.47 -5.90 0.17 -1.69 -25.58 -43.91 -31.1 -31.79 104.57 -7.69 16.76 -4.90 -48.2 -0 24.48 14.13 -0 -5.34 -0.19 -0 0.00 0 -0 0.00 -15 -0 -0.57 0 -0 8.50 0 -0 4.25 0 -0 0.00 0 -0 9.01 0 -0 9.01 0 -0 9.01 0 -0 0.00 15 -0 24.85 0 -0 24.85 0 -0 24.85 0 -0 0.00 25 -0 30.12 0 -0 30.12 0 -0 30.12 -8.99 0.76 6.71 41.33 -8.89 23.87 23.80 55.88 -114.21 -20.63 51.5 19.48 -26.65 0 -36.29 -43.25 0 7.92 26.71 0 0.00 0.00 0 0.00 -15.00 0 -4.96 0.00 0 -5.82 0.00 0 -2.91 0.00 0 0.00 0.00 0 -23.00 0.00 0 -23.00 0.00 0 -23.00 0.00 0 0.00 15.00 0 -29.13 0.00 0 -29.13 0.00 0 -29.13 0.00 0 0.00 25.00 0 -35.64 0.00 0 -35.64 0.00 0 -35.64 
-218.59 92.12 94.06 68.01 -6.82 1.72 0.90 -4.50 -7.38 -0.00 30.37 -0.00 -40.55 -11.57 13.75 -13.27 -8.22 15.39 -0.00 25.99 0.00 9.82 7.86 -15.00 -15.52 4.66 2.57 -3.89 1.14 0.76 -6.28 1.94 1.20 1.92 1.92 -1.49 -0.75 35.07 -21.80 4.76 41.16 -26.07 22.07 -5.33 -0.03 -2.34 -24.36 -45.59 -30.56 -33.07 105.71 -7.83 16.61 -3.49 -48.33 -0 24.46 13.88 -0 -5.36 -0.07 -0 0.00 0 -0 0.00 -15 -0 -0.69 0 -0 8.28 0 -0 4.14 0 -0 0.00 0 -0 9.36 0 -0 9.36 0 -0 9.36 0 -0 0.00 15 -0 25.15 0 -0 25.15 0 -0 25.15 0 -0 0.00 25 -0 29.64 0 -0 29.64 0 -0 29.64 -9.15 1.64 6.54 40.72 -7.88 23.31 20.78 55.85 -113.93 -20.24 51.33 19.09 -26.55 0 -36.47 -43.05 0 7.75 26.26 0 0.00 0.00 0 0.00 -15.00 0 -4.96 0.00 0 -5.32 0.00 0 -2.66 0.00 0 0.00 0.00 0 -22.88 0.00 0 -22.88 0.00 0 -22.88 0.00 0 0.00 15.00 0 -33.34 0.00 0 -33.34 0.00 0 -33.34 0.00 0 0.00 25.00 0 -35.06 0.00 0 -35.06 0.00 0 -35.06 
